<svg viewBox="0 0 400 400" xmlns="http://www.w3.org/2000/svg" role="img" aria-label="Illustration of layered granny-square crochet motif">
  <defs>
    <radialGradient id="gsBg" cx="35%" cy="30%" r="80%">
      <stop offset="0%" stop-color="#FBEFF4"/>
      <stop offset="100%" stop-color="#E7D4F0"/>
    </radialGradient>
    <linearGradient id="gsRing1" x1="0" y1="0" x2="1" y2="1">
      <stop offset="0%" stop-color="#F3C7D6"/>
      <stop offset="100%" stop-color="#E9A9C2"/>
    </linearGradient>
    <linearGradient id="gsRing2" x1="0" y1="1" x2="1" y2="0">
      <stop offset="0%" stop-color="#D8C3E0"/>
      <stop offset="100%" stop-color="#C6A6D6"/>
    </linearGradient>
    <linearGradient id="gsRing3" x1="0" y1="0" x2="0" y2="1">
      <stop offset="0%" stop-color="#F6E3B4"/>
      <stop offset="100%" stop-color="#EFCE85"/>
    </linearGradient>
  </defs>
  <rect width="400" height="400" fill="url(#gsBg)"/>
  <g transform="translate(200,200)">
    <g stroke="#4A3B42" stroke-opacity="0.12" stroke-width="1.5" fill="none">
      <circle r="150"/>
      <circle r="120"/>
      <circle r="90"/>
    </g>
    <g fill="none" stroke-width="14" stroke-linecap="round">
      <path d="M -120 -20 A 122 122 0 0 1 -20 -120" stroke="url(#gsRing3)"/>
      <path d="M 20 -120 A 122 122 0 0 1 120 -20" stroke="url(#gsRing3)"/>
      <path d="M 120 20 A 122 122 0 0 1 20 120" stroke="url(#gsRing3)"/>
      <path d="M -20 120 A 122 122 0 0 1 -120 20" stroke="url(#gsRing3)"/>
    </g>
    <g fill="none" stroke-width="16" stroke-linecap="round">
      <path d="M -92 -14 A 93 93 0 0 1 -14 -92" stroke="url(#gsRing2)"/>
      <path d="M 14 -92 A 93 93 0 0 1 92 -14" stroke="url(#gsRing2)"/>
      <path d="M 92 14 A 93 93 0 0 1 14 92" stroke="url(#gsRing2)"/>
      <path d="M -14 92 A 93 93 0 0 1 -92 14" stroke="url(#gsRing2)"/>
    </g>
    <g fill="none" stroke-width="18" stroke-linecap="round">
      <path d="M -63 -9 A 64 64 0 0 1 -9 -63" stroke="url(#gsRing1)"/>
      <path d="M 9 -63 A 64 64 0 0 1 63 -9" stroke="url(#gsRing1)"/>
      <path d="M 63 9 A 64 64 0 0 1 9 63" stroke="url(#gsRing1)"/>
      <path d="M -9 63 A 64 64 0 0 1 -63 9" stroke="url(#gsRing1)"/>
    </g>
    <circle r="26" fill="#F6DDE4" stroke="#B98CA6" stroke-width="2"/>
    <circle r="26" fill="none" stroke="#4A3B42" stroke-opacity="0.15" stroke-width="1" stroke-dasharray="2 5"/>
  </g>
</svg>
