<svg viewBox="0 0 400 400" xmlns="http://www.w3.org/2000/svg" role="img" aria-label="Illustration of stacked hand-dyed yarn skeins">
  <defs>
    <radialGradient id="ysBg" cx="30%" cy="70%" r="90%">
      <stop offset="0%" stop-color="#F3EAF6"/>
      <stop offset="100%" stop-color="#D8C3E0"/>
    </radialGradient>
    <radialGradient id="skein1" cx="35%" cy="35%" r="70%">
      <stop offset="0%" stop-color="#F6DDE4"/>
      <stop offset="100%" stop-color="#E39FB6"/>
    </radialGradient>
    <radialGradient id="skein2" cx="35%" cy="35%" r="70%">
      <stop offset="0%" stop-color="#EAD9F2"/>
      <stop offset="100%" stop-color="#C6A0D9"/>
    </radialGradient>
    <radialGradient id="skein3" cx="35%" cy="35%" r="70%">
      <stop offset="0%" stop-color="#FBECC7"/>
      <stop offset="100%" stop-color="#EACB84"/>
    </radialGradient>
  </defs>
  <rect width="400" height="400" fill="url(#ysBg)"/>
  <g>
    <circle cx="150" cy="260" r="68" fill="url(#skein2)"/>
    <circle cx="270" cy="270" r="58" fill="url(#skein3)"/>
    <circle cx="205" cy="170" r="76" fill="url(#skein1)"/>
  </g>
  <g fill="none" stroke="#ffffff" stroke-opacity="0.55" stroke-width="2">
    <path d="M148 200 Q120 260 160 320 M178 195 Q225 260 172 322 M120 250 Q150 305 195 305"/>
    <path d="M240 220 Q290 260 260 320 M300 235 Q325 275 290 315"/>
    <path d="M150 110 Q95 170 145 235 M260 110 Q315 170 262 235 M170 100 Q205 150 175 235 M235 105 Q265 160 233 232"/>
  </g>
  <g fill="none" stroke="#4A3B42" stroke-opacity="0.12" stroke-width="1.2">
    <circle cx="150" cy="260" r="68"/>
    <circle cx="270" cy="270" r="58"/>
    <circle cx="205" cy="170" r="76"/>
  </g>
</svg>
